<?xml version="1.0" encoding="UTF-8"?>
<svg width="64" height="64" viewBox="0 0 64 64" fill="none" xmlns="http://www.w3.org/2000/svg" role="img" aria-label="Kamtib SOS Created">
  <title>Kamtib - SOS Created</title>
  <!-- Icon path supplied by Lucide v0.469.0, ISC License. -->
  <defs>
    <filter id="marker-shadow" x="-40%" y="-40%" width="180%" height="180%">
      <feDropShadow dx="0" dy="2" stdDeviation="1.8" flood-color="#0F172A" flood-opacity="0.24" />
    </filter>
  </defs>
  
  
  <circle cx="32" cy="32" r="23" fill="#DC2626" opacity="0.14" />
  <circle cx="32" cy="32" r="20.5" fill="#FFFFFF" filter="url(#marker-shadow)" />
  <circle cx="32" cy="32" r="20.5" stroke="#DC2626" stroke-width="3" />
  <circle cx="32" cy="32" r="16.5" fill="#FEE2E2" opacity="0.5" />
  <g color="#DC2626">
    <svg x="13" y="19" width="31" height="31" viewBox="0 0 24 24" fill="none" stroke="currentColor" stroke-width="2" stroke-linecap="round" stroke-linejoin="round">
    <path d="m21 8-2 2-1.5-3.7A2 2 0 0 0 15.646 5H8.4a2 2 0 0 0-1.903 1.257L5 10 3 8" />
  <path d="M7 14h.01" />
  <path d="M17 14h.01" />
  <rect width="18" height="8" x="3" y="10" rx="2" />
  <path d="M5 18v2" />
  <path d="M19 18v2" />
  </svg>
    <circle cx="43" cy="21" r="9" fill="#FFFFFF" stroke="#DC2626" stroke-width="2" />
  <svg x="36.5" y="14.5" width="13" height="13" viewBox="0 0 24 24" fill="none" stroke="currentColor" stroke-width="2" stroke-linecap="round" stroke-linejoin="round">
    <path d="M20 13c0 5-3.5 7.5-7.66 8.95a1 1 0 0 1-.67-.01C7.5 20.5 4 18 4 13V6a1 1 0 0 1 1-1c2 0 4.5-1.2 6.24-2.72a1.17 1.17 0 0 1 1.52 0C14.51 3.81 17 5 19 5a1 1 0 0 1 1 1z" />
  <path d="m9 12 2 2 4-4" />
  </svg>
  </g>
</svg>
